<?xml version="1.0" encoding="utf-8"?>
<!-- Generator: Adobe Illustrator 23.0.5, SVG Export Plug-In . SVG Version: 6.00 Build 0)  -->
<svg version="1.1" id="Layer_1" xmlns="http://www.w3.org/2000/svg" xmlns:xlink="http://www.w3.org/1999/xlink" x="0px" y="0px"
	 viewBox="0 0 595.28 841.89" style="enable-background:new 0 0 595.28 841.89;" xml:space="preserve">
<style type="text/css">
	.st0{fill:#B493C4;}
	.st1{fill:#BFA0CB;}
	.st2{fill:#8F78B5;}
	.st3{fill:#80B7E0;}
	.st4{fill:#C2A2CD;}
	.st5{fill:#7DBAE2;}
	.st6{fill:#9675B4;}
	.st7{fill:#BA99C7;}
	.st8{fill:#B897C6;}
	.st9{fill:#9579B7;}
	.st10{fill:#A48CC1;}
	.st11{fill:#86BFE3;}
	.st12{fill:#9D87BE;}
	.st13{fill:#997BB8;}
	.st14{fill:#9ED4F0;}
	.st15{fill:#97CDEC;}
	.st16{fill:#7FBBE3;}
	.st17{fill:#B695C5;}
	.st18{fill:#B492C4;}
	.st19{fill:#B391C3;}
	.st20{fill:#FDFCFC;}
	.st21{fill:#FEFFFF;}
	.st22{fill:#F7FAFD;}
	.st23{fill:#F9FBFD;}
	.st24{fill:#FAFCFE;}
	.st25{fill:#F9FBFE;}
</style>
<path class="st0" d="M279.22,417.45c-0.41-0.23-0.93-0.37-1.22-0.71c-6.31-7.46-13.59-13.98-20.34-21.03
	c-1.92-2.01-2.72-4.04-2.68-6.8c0.14-8.64,0.11-17.28,0.02-25.91c-0.03-2.41,0.23-4.33,2.77-5.47c1.44-0.64,2.53-1.95,3.39-3.32
	c2.53-4.01,1.78-8.02-1.72-11.71c-3.14-3.31-8.87-3.54-11.86-1.2c-5.84,4.56-6.45,11.03-0.11,16.09c3.66,1.16,3.82,3.96,3.76,7.22
	c-0.17,8.95,0,17.92-0.09,26.87c-0.02,2.25,0.66,3.93,2.25,5.51c6.67,6.67,13.28,13.41,19.85,20.19c2.55,2.64,4.89,5.48,7.42,8.15
	c1.2,1.27,1.57,2.69,1.56,4.36c-0.05,5.76-0.04,11.52-0.05,17.28c-0.05,15.04-0.09,30.07-0.16,45.11c-0.01,1.58,0.23,3.21-0.41,4.73
	c-0.11,0.27-0.39,0.57-0.65,0.64c-0.21,0.06-0.67-0.13-0.75-0.33c-1.58-3.66-3.21-7.31-4.62-11.03c-0.44-1.15-0.3-2.52-0.38-3.79
	c-0.88-15.65-0.73-31.31-0.7-46.97c0.01-2.79-0.77-4.89-2.86-6.71c-1.92-1.68-3.65-3.59-5.44-5.41
	c-10.98-11.18-21.89-22.43-32.97-33.51c-2.35-2.35-3.55-4.77-3.17-8.04c0.13-1.1,0.1-2.24,0-3.36c-0.29-3.17,0.19-5.7,3.31-7.66
	c3.45-2.18,4.35-5.92,3.33-9.78c-0.96-3.65-3.55-5.95-7.24-6.97c-4.89-1.35-11.06,2.81-11.7,7.91c-0.58,4.66,1.27,8.34,5.84,10.47
	c1.94,0.9,2.69,1.95,2.64,3.95c-0.06,3.04,0.08,6.08-0.02,9.12c-0.06,1.91,0.59,3.34,1.94,4.67c3.53,3.48,6.96,7.07,10.44,10.59
	c6.64,6.71,13.28,13.42,19.94,20.1c3.38,3.39,6.4,7.13,10.13,10.18c1.29,1.05,1.98,2.38,1.97,4.16
	c-0.08,12.48-0.08,24.95-0.12,37.43c0,0.47-0.03,0.97-0.17,1.42c-0.07,0.23-0.4,0.41-0.64,0.55c-0.09,0.05-0.34-0.03-0.41-0.13
	c-2.36-3.4-4.76-6.79-6.39-10.62c-0.41-0.97-0.22-2.21-0.23-3.32c-0.02-5.44-0.13-10.88,0.04-16.31c0.09-2.78-0.81-4.77-2.77-6.73
	c-15.18-15.13-30.26-30.36-45.38-45.56c-0.45-0.45-0.86-0.96-1.36-1.35c-2.52-1.97-3.35-4-1.86-7.33c1.78-4,0.32-7.97-2.79-10.29
	c-3.72-2.77-7.87-2.97-11.61-0.54c-3.28,2.12-5.03,6.88-3.88,10.54c1.43,4.54,4.72,7.04,9.18,6.97c0.48-0.01,1.03,0.12,1.43-0.08
	c2.6-1.29,4.1,0.32,5.71,1.98c10.95,11.21,21.92,22.4,32.9,33.58c4.71,4.79,9.39,9.62,14.21,14.3c1.76,1.71,2.5,3.51,2.37,5.95
	c-0.19,3.67-0.09,7.35-0.16,11.03c0,0.24-0.27,0.59-0.51,0.7c-0.23,0.1-0.58-0.01-0.85-0.09c-0.13-0.04-0.23-0.21-0.34-0.33
	c-7.69-8.76-17.14-15.34-27-21.27c-7.53-4.53-15.59-8.07-23.75-11.37c-7.54-3.05-15.15-5.98-22.13-10.26
	c-4.36-2.67-8.66-5.39-12.55-8.73c6.7-7.43,7.56-16.21,7.81-25.93c0.36-14.33,10.67-25.42,24.29-28.59
	c9.27-2.16,8.74-0.58,8.87-11.12c0.18-14.68,13.4-28.6,28.86-30.57c16.35-2.09,30.87,6.82,35.26,21.59
	c0.84,2.81,0.95,5.66,0.95,8.54c0,21.43,0.01,42.86-0.02,64.29c0,3.26,0.19,6.17,2.94,8.69
	C282.52,413.88,282.79,416.4,279.22,417.45z"/>
<path class="st0" d="M243.75,534.83c-3.61,1.91-7.7,2.37-11.46,3.82c-1,0.39-2.09,0.54-3.14,0.8c-3.75-0.29-7.1-1.48-10.17-3.77
	c-3.34-2.5-7.33-3.9-11-5.86c-19.02-10.12-35.94-22.7-48.07-40.92c-7.35-11.05-12.25-23.13-15.28-36.01
	c-3.13-13.3-4.53-26.76-4.08-40.44c0.16-4.82,0.92-9.54,1.73-14.26c0.26-1.5,0.22-3.48,2.14-3.95c2.06-0.51,3.14,1.22,4.23,2.57
	c1.51,1.88,3.25,3.52,4.87,5.29c14.08,15.45,30.98,26.55,50.67,33.57c14.49,5.17,27.59,13.09,38.7,23.56
	c16.95,15.95,26.88,35.95,30.55,58.98c0.28,1.74,0.31,3.54-1.06,4.98c-1.25,1.65-3.3,1.83-5.01,2.61
	c-3.62,1.64-7.32,3.11-10.99,4.64c-0.14,0.06-0.32,0.01-0.62,0.01c-1.41-1.8-2.77-3.75-4.36-5.51c-2.78-3.09-5.99-5.72-9.48-7.98
	c-7.36-4.76-14.8-9.4-22.09-14.26c-10.34-6.89-20.51-13.97-29.64-22.51c-6.31-5.91-11.84-12.42-17.18-19.15
	c-0.38-0.48-0.97-0.8-1.46-1.19c-0.17-0.1-0.34-0.19-0.51-0.29c-0.57-0.51-1.05-1.12-1.59-1.66c-0.27-0.22-0.53-0.47-0.79-0.69
	c-0.24-0.18-0.49-0.39-0.71-0.55c6.62,14.75,15.54,27.84,27.18,39.04c6,5.77,12.93,10.34,19.61,15.24
	C224.88,518.35,235.28,525.42,243.75,534.83z"/>
<path class="st1" d="M433.43,274.3c-5.46-4.26-10.51-8.42-15.78-12.28c-10.86-7.94-22.43-14.73-34.6-20.48
	c-10.56-4.99-21.45-9.03-32.67-12.31c-7.36-2.16-14.8-3.91-22.31-5.28c-5.47-0.99-11.01-1.72-16.55-2.35
	c-4.78-0.55-9.56-0.58-14.32-1c-3.66-0.32-7.32-0.99-10.97-0.6c-6.85,0.73-13.77,0.23-20.56,1.03c-8.84,1.04-17.66,2.3-26.42,4.11
	c-14.61,3.02-28.7,7.56-42.34,13.41c-10.87,4.66-21.23,10.35-31.22,16.78c-16.81,10.82-31.54,24.05-44.71,38.93
	c-13.4,15.14-24.32,32.04-32.97,50.37c-6.42,13.61-11.75,27.6-15.31,42.23c-1.24,5.1-2.8,10.17-3.5,15.35
	c-0.81,5.99-1.66,11.99-2.37,18c-1.26,10.54-0.71,21.07-0.78,31.61c-0.04,5.59,0.95,11.1,1.62,16.64c0.55,4.6,1.25,9.15,2.18,13.68
	c2.35,11.42,5.51,22.6,9.67,33.51c2.5,6.58,5.4,12.97,8.4,19.32c3.14,6.65,6.87,12.99,10.65,19.3c5.6,9.34,12.02,18.13,19.06,26.38
	c6.1,7.15,12.42,14.14,19.6,20.35c6.17,5.33,12.28,10.71,18.81,15.57c7.56,5.64,15.46,10.76,23.69,15.39
	c9.49,5.35,19.36,9.83,29.51,13.72c10.29,3.94,20.9,6.74,31.64,9.18c6.39,1.45,12.9,1.99,19.27,3.46c0.31,0.07,0.63,0.1,0.95,0.1
	c6.71,0.03,13.34,1.4,20.08,1.13c5.27-0.21,10.56,0.12,15.83-0.1c8.75-0.36,17.45-1.2,26.15-2.49c10.62-1.57,20.89-4.42,31.11-7.44
	c5.8-1.71,11.41-4.1,17.02-6.41c9.76-4.02,19.2-8.75,28.26-14.18c6.58-3.94,12.89-8.3,19.09-12.82
	c10.5-7.65,20.11-16.32,28.89-25.86c8.66-9.41,16.47-19.53,23.47-30.25c5.6-8.58,10.74-17.42,15.09-26.68
	c5.3-11.27,9.69-22.91,13.09-34.93c1.56-5.53,2.96-11.09,4.08-16.71c1.09-5.46,1.4-11.07,2.54-16.51c1.29-6.16,0.77-12.41,1.5-18.6
	c0.67-5.65,0.77-11.48-0.31-17.2c-0.24-1.25-0.26-2.55-0.25-3.82c0.05-7.38-1.49-14.57-2.51-21.82c-0.8-5.7-2.01-11.3-3.4-16.85
	c-2.61-10.38-6.08-20.49-10.29-30.34c-3.52-8.24-7.48-16.26-11.85-24.07c-0.57-1.02-0.57-1.76,0.43-2.41
	c0.67-0.44,1.3-0.93,1.99-1.34c0.64-0.38,1.27-0.19,1.69,0.36c0.48,0.63,0.89,1.33,1.26,2.03c7.69,14.4,14.55,29.16,19.06,44.91
	c2.68,9.34,5.2,18.71,6.56,28.37c0.78,5.52,1.34,11.06,2.01,16.59c1.22,10.07,0.84,20.13,0.52,30.17
	c-0.16,5.21-0.73,10.47-1.44,15.7c-1.07,7.9-2.35,15.75-4.17,23.51c-1.02,4.34-2.2,8.65-3.49,12.92
	c-4.23,13.94-9.52,27.45-16.31,40.36c-6.34,12.05-13.78,23.4-21.91,34.3c-3.73,5-7.9,9.62-12.07,14.26
	c-3.74,4.17-7.51,8.3-11.6,12.11c-6.78,6.32-13.79,12.35-21.35,17.76c-11.99,8.58-24.54,16.19-37.89,22.43
	c-13.18,6.16-26.74,11.38-40.94,14.69c-7.75,1.81-15.57,3.26-23.48,4.32c-3.5,0.47-7.01,0.47-10.47,0.97
	c-9.72,1.4-19.47,0.59-29.21,0.8c-3.76,0.08-19.87-1.77-24.24-2.44c-5.83-0.89-11.62-1.95-17.37-3.25
	c-14.68-3.32-28.84-8.13-42.54-14.36c-13.72-6.24-26.61-13.83-38.82-22.67c-7.52-5.45-14.72-11.24-21.38-17.71
	c-2.29-2.22-4.82-4.2-7.07-6.46c-8.35-8.39-15.93-17.45-22.95-26.98c-8.66-11.75-15.82-24.4-22.02-37.57
	c-5.79-12.29-10.33-25.05-13.82-38.21c-1.72-6.48-2.84-13.07-4.34-19.59c-0.57-2.48-0.57-5.06-0.9-7.59
	c-0.55-4.25-1.56-8.49-1.29-12.84c0.26-4.17-0.81-8.27-0.74-12.41c0.14-7.5,0.16-15.04,0.97-22.48c1.54-14.1,4.01-28.04,7.94-41.72
	c3.9-13.56,8.97-26.65,15.19-39.25c7.3-14.78,16.07-28.67,26.35-41.62c7.69-9.68,16.23-18.53,25.32-26.82
	c9.68-8.84,20.13-16.74,31.35-23.59c6.01-3.67,12.14-7.1,18.46-10.19c13.67-6.69,27.87-11.92,42.62-15.66
	c5.24-1.33,10.48-2.88,15.82-3.58c5.84-0.77,11.65-1.76,17.51-2.44c10.06-1.17,20.11-0.74,30.17-0.88c8.79-0.12,17.5,0.5,26.23,1.8
	c8.68,1.29,17.29,2.8,25.77,5.01c17.21,4.48,33.84,10.52,49.52,18.98c10.41,5.62,20.49,11.8,29.98,18.87
	c3.97,2.96,7.74,6.17,11.53,9.36c1.7,1.44,1.65,1.89,0.2,3.51C434.83,273.06,434.22,273.56,433.43,274.3z"/>
<path class="st2" d="M447.27,322.37c1.82,2.28,1.84,4.9,2.33,7.35c1.6,8.02,1.97,16.09,1.75,24.3
	c-0.54,20.76-8.01,39.32-17.62,57.17c-9.15,17-21.09,32.01-34.38,45.96c-17.04,17.89-35.6,34.07-55.92,48.1
	c-25.35,17.51-52.3,32.12-81.14,43.09c-17.94,6.83-36.27,12.44-55.2,15.79c-14.38,2.54-28.92,3.35-43.48,2.11
	c-8.48-0.72-16.72-2.72-23.97-7.58c-2.67-1.79-5.19-3.75-7.21-6.28c-4.82-6.02-6.11-12.97-4.81-20.36
	c0.81-4.58,2.72-8.84,5.31-12.75c0.15-0.23,0.53-0.3,0.8-0.45c0.41,0.61,0.18,1.18-0.04,1.8c-0.85,2.42-1.36,4.91-1.75,7.45
	c-1.48,9.65,3.15,16.96,10.37,20.81c5.15,2.74,10.68,4.25,16.42,4.96c8.75,1.09,17.51,1.02,26.32,0.38
	c14.23-1.03,28.2-3.5,41.99-7.03c13.02-3.33,25.63-7.88,38.01-13.15c20.35-8.66,39.97-18.69,58.52-30.75
	c9.25-6.02,18.14-12.57,26.74-19.49c7.6-6.11,15.2-12.22,22.43-18.78c5.57-5.06,10.91-10.35,16.05-15.83
	c4.82-5.13,9.55-10.34,14.2-15.62c16.72-18.97,29.13-40.43,36.76-64.55c3.57-11.3,5.86-22.89,6.47-34.77
	C446.44,330.28,447.16,326.34,447.27,322.37z"/>
<path class="st3" d="M418.42,396.98c-3.2,9.16-8.51,16.89-14.07,24.46c-5.78,7.87-12.31,15.1-19.17,22.03
	c-5.96,6.02-11.8,12.19-18.09,17.85c-6.75,6.09-13.91,11.73-20.99,17.45c-8.82,7.14-18.06,13.7-27.63,19.79
	c-7.4,4.71-14.87,9.33-22.66,13.39c-0.57,0.29-1.13,0.59-1.72,0.85c-1.01,0.44-1.64,0.08-1.57-0.9c0.06-0.79,0.08-1.61,0.29-2.37
	c4.62-16.83,11.86-32.31,23.09-45.84c5.85-7.05,12.21-13.51,19.77-18.72c2.36-1.63,4.78-3.2,7.29-4.58
	c8.7-4.77,17.76-8.76,27.03-12.28c12.18-4.62,23.48-10.87,33.76-18.87c4.53-3.53,8.8-7.4,13.19-11.1
	C417.43,397.73,417.93,397.37,418.42,396.98z"/>
<path class="st4" d="M360.64,501.06c3.06-2.52,6.12-5.05,9.19-7.57c3.08-2.53,6.2-4.99,9.23-7.57c9.98-8.49,19.33-17.66,28.2-27.28
	c7.23-7.84,14.16-15.99,19.91-25.03c0.42-0.66,1.07-1.16,1.61-1.74c1.58,1.34,1.37,3.18,1.16,4.89
	c-5.55,43.66-25.63,78.68-61.91,104.07c-0.55,0.34-1.12,0.64-1.67,0.97c-0.65,0.42-1.32,0.83-2,1.21c-0.46,0.28-0.93,0.56-1.37,0.87
	c-0.56,0.42-1.15,0.81-1.76,1.16c-0.44,0.29-0.88,0.58-1.31,0.9c-0.58,0.46-1.2,0.86-1.82,1.27c-0.48,0.35-0.95,0.71-1.43,1.06
	c-2.4,1.79-4.98,3.28-7.66,4.6c-0.57,0.35-1.13,0.7-1.69,1.07c-2.01,1.26-4.02,2.53-6.42,2.92c-3.89,0.31-5.32-2.18-6.03-5.39
	c-0.96-4.37,0.75-9.04,4.28-11.33c2.39-1.54,5.13-2.52,7.13-4.66c3.89-2.49,7.79-4.96,11.66-7.47c5.75-3.73,11.35-7.67,16.55-12.18
	c3.26-2.83,6.53-5.64,9.44-8.82c2.69-2.93,5.2-6.02,7.8-9.04c-0.72-0.76-1.2-0.06-1.58,0.33c-5.07,5.1-10.51,9.77-16.22,14.15
	c-5.7,4.39-11.7,8.3-18.06,11.64c-2.72-0.25-4.52,2.07-7,2.52c-1.57,0.28-3.21,0.9-4.45-0.51c-1.19-1.35-0.07-2.66,0.48-3.94
	c3.06-7.1,7.65-13.09,13.31-18.3C359.14,503.03,360.38,502.47,360.64,501.06z"/>
<path class="st5" d="M309.77,404.18c-1.17-0.74-1.76-1.8-1.88-3.17c-0.1-1.16-0.84-1.64-1.93-1.66c-1.92-0.03-3.84-0.02-5.76-0.08
	c-0.86-0.02-1.56-0.38-1.64-1.36c-0.08-1,0.6-1.95,1.57-2.08c0.94-0.13,1.91-0.12,2.86-0.17c1.11-0.05,2.24-0.04,3.34-0.17
	c0.93-0.1,1.47-1.07,1.34-2.19c-0.1-0.91-0.61-1.5-1.52-1.54c-2.07-0.11-4.15-0.1-6.22-0.22c-1.04-0.06-1.58-0.89-1.49-2.04
	c0.07-0.88,0.44-1.55,1.37-1.67c0.79-0.11,1.59-0.12,2.39-0.14c1.12-0.04,2.24,0.01,3.35-0.09c1.35-0.12,2.12-0.94,2.16-2.11
	c0.04-1.21-0.71-2.12-2.03-2.21c-1.91-0.13-3.83-0.09-5.75-0.21c-1.04-0.07-1.56-0.87-1.5-2.05c0.05-0.86,0.33-1.63,1.31-1.69
	c1.91-0.11,3.83-0.09,5.75-0.18c1.6-0.07,2.05-0.5,2.21-1.92c0.02-0.16,0.04-0.32,0.04-0.48c0.03-5.51,0.84-4.34-3.46-8.19
	c-3.44-3.09-7-6.06-10.58-8.99c-2.27-1.86-3.28-4.02-3.17-7.05c0.21-5.75,0.11-11.51,0.01-17.27c-0.11-5.83,1.74-11.12,5.04-15.69
	c4.85-6.71,10.92-12.16,19.17-14.42c14.77-4.04,28.05-1.79,39.42,9.19c5.52,5.33,8.69,11.71,10.31,19.06
	c0.66,2.98,1.03,5.96,0.96,9.01c-0.03,1.54,0.47,1.95,1.98,2.12c1.58,0.17,3.16,0.13,4.75,0.47c11.14,2.35,18.19,9.54,22.74,19.46
	c2.56,5.57,3.77,11.49,3.21,17.72c-0.22,2.43-0.75,4.72-1.53,6.99c-0.76,2.19-0.52,4.05,1.36,5.59c1.88,1.54,3.15,3.6,4.39,5.65
	c0.87,1.44,0.74,2.14-0.48,3.4c-0.55,0.57-1.16,1.1-1.79,1.59c-0.9,0.71-1.84,0.58-2.37-0.52c-1.85-3.84-4.79-6.76-7.88-9.56
	c-0.93-0.84-1.2-1.74-0.66-2.98c1.35-3.12,1.62-6.53,1.96-9.82c0.51-4.95-0.18-9.88-2.37-14.45c-1.11-2.3-2.04-4.81-3.66-6.72
	c-5.41-6.41-12.32-9.99-20.89-9.9c-0.79,0.01-1.59,0.17-2.36,0.35c-1.88,0.44-3.39,1.05-4.55,3c-1.95,3.3-5.04,4.16-8.73,3.22
	c-3.66-0.93-6.04-5.98-4.61-9.74c0.65-1.71,1.77-3.05,3.24-4.06c2.31-1.58,4.72-1.9,7.16-0.25c0.91,0.62,1.78,1.3,2.88,2.1
	c2.66-4.52,1.21-9.13,0.3-13.42c-1.28-6.05-4.72-11.09-9.34-15.15c-1.31,0.3-1.04,1.22-1.04,1.94c-0.02,4.48-0.05,8.96,0.04,13.43
	c0.03,1.73-0.37,3.23-1.77,4.22c-4.46,3.13-5.32,7.48-4.91,12.59c0.35,4.29,0.09,8.63,0.07,12.95c-0.01,2.24,0.33,3.16,2.54,3.07
	c1.84-0.07,2.96,0.92,3.83,2.4c0.48,0.82,1.21,1.53,1.59,2.39c0.87,1.99,2.23,2.87,4.46,2.88c1.62,0.01,2.53,2.65,1.53,4.07
	c-0.24,0.34-0.76,0.6-1.2,0.67c-0.94,0.16-1.91,0.14-2.86,0.27c-0.98,0.13-1.24,0.88-1.28,1.73c-0.04,0.85,0.2,1.8,1.11,1.84
	c3.35,0.13,6.7,0.1,10.05,0.07c0.43,0,0.92-0.3,1.28-0.59c1.74-1.4,3.47-2.82,5.17-4.27c0.88-0.74,1.46-1.65,1.52-2.88
	c0.03-0.62,0.19-1.27,0.43-1.85c1.92-4.63,5.68-5.95,10.17-4.24c3.69,1.41,5.14,6.34,3.27,10.24c-1.91,3.99-6.03,5.45-10.04,3.44
	c-1.12-0.56-2.06-1.47-3.24-2.32c-1.74,1.1-3.23,2.54-4.62,4.03c-1.53,1.63-3.24,2.38-5.5,2.27c-2.55-0.13-5.12-0.03-7.67,0.08
	c-1.74,0.07-2.75,2.45-1.73,3.96c0.38,0.56,1.02,0.73,1.68,0.74c2.72,0.02,5.44-0.01,8.16,0.06c1.02,0.03,2.38-0.46,2.79,1.04
	c0.28,1.01-0.91,1.82-2.74,1.87c-2.72,0.07-5.44,0.02-8.15,0.09c-1.44,0.04-1.97,0.67-2.03,2.1c-0.07,1.53,0.37,2.2,1.7,2.39
	c0.79,0.11,1.6,0.07,2.39,0.15c1.16,0.12,1.62,0.86,1.61,1.96c0,1.21-0.49,1.85-1.61,1.96c-0.79,0.08-1.6,0.12-2.4,0.07
	c-1.73-0.11-3.08,0.54-4.22,1.83c-1.73,1.96-3.8,3.39-6.45,3.83c-0.9,0.15-1.42,0.66-1.53,1.55c-0.08,0.63-0.04,1.29-0.17,1.91
	c-0.31,1.55-1.03,2.09-2.68,2.11c-1.63,0.02-2.53-0.6-2.75-2.03c-0.17-1.1-0.14-2.23-0.34-3.33c-0.13-0.7-0.78-1.03-1.46-0.86
	c-0.41,0.1-1,0.44-1.07,0.76c-0.23,1.08-0.2,2.22-0.37,3.32c-0.3,1.91-3.36,2.99-4.93,1.72c-0.33-0.27-0.57-0.79-0.63-1.22
	c-0.12-0.95-0.09-1.91-0.13-2.87c-0.05-1.1-0.55-1.79-1.73-1.84c-1.15-0.05-1.85,0.46-1.99,1.57c-0.12,0.95-0.05,1.92-0.21,2.87
	c-0.25,1.54-2.46,2.49-3.78,1.63c-0.36-0.23-0.7-0.73-0.75-1.14c-0.16-1.26-0.12-2.55-0.28-3.82c-0.12-0.91-0.92-1.22-1.7-1.46
	C312.03,406.49,310.37,406.11,309.77,404.18z"/>
<path class="st6" d="M272.4,523.19c0.2-3.05-0.27-6-0.89-8.99c-1.64-7.99-3.97-15.74-7.5-23.1c-2.56-5.33-5.29-10.56-8.66-15.43
	c-2-2.88-3.96-5.78-6.52-8.22c-0.8-0.77-1.62-1.59-2.17-2.54c-1.07-1.85-2.59-3.28-4.15-4.62c-6.42-5.5-13.32-10.35-20.58-14.71
	c-6.05-3.63-12.45-6.38-18.94-9.1c-6.02-2.53-12.16-4.81-17.99-7.81c-6.29-3.22-11.83-7.48-17.41-11.72
	c-6.39-4.85-11.7-10.85-17.37-16.46c-1.57-1.56-2.85-3.41-4.33-5.07c-0.25-0.28-0.84-0.39-1.27-0.37c-0.58,0.02-0.68,0.58-0.77,1.05
	c-1.23,6.9-2.36,13.8-2.02,20.86c0.26,5.4-0.6,10.87,0.93,16.2c0.02,7.72,2.23,15.07,3.9,22.5c1.36,6.06,3.3,11.99,6.17,17.55
	c1.46,2.82,2.62,5.77,4.16,8.58c5.74,10.52,13.56,19.28,22.23,27.34c2.9,2.7,6.3,4.86,9.45,7.28c7.37,5.65,15.45,10.13,23.72,14.3
	c3.27,1.65,6.7,2.99,9.48,5.53c0.91,0.83,2.19,1.27,3.52,1.38c1.47,0.12,2.78,0.66,3.76,1.84c-0.73,0.31-1.48,0.59-2.2,0.94
	c-2.98,1.44-5.88,1.03-8.75-0.32c-17.44-8.19-34.04-17.66-48.03-31.18c-12.07-11.67-20.55-25.6-26.29-41.29
	c-2.97-8.12-5.19-16.47-6.46-25c-1.54-10.27-2.82-20.61-2.12-31.02c0.66-9.72,1.72-19.41,4.69-28.77c0.53-1.67,1.21-3.3,1.87-4.92
	c0.25-0.61,1.18-0.64,1.54-0.05c0.59,0.95,1.13,1.93,1.67,2.9c5.53,9.84,12.63,18.38,20.84,26.13c10.09,9.53,21.89,15.94,34.85,20.5
	c11.65,4.1,22.78,9.27,33.04,16.23c17.72,12.01,30.34,28.11,38.75,47.71c3.55,8.29,5.57,16.97,7.31,25.74
	c0.51,2.59,0.35,2.88-2.16,4.03C275.97,521.86,274.39,523.06,272.4,523.19z"/>
<path class="st7" d="M346.29,535.48c-0.92,2.19-2.71,3.41-4.71,4.52c-5.32,2.96-6.84,7.14-5.09,12.79c0.68,2.22,1.81,3.24,4.08,3.06
	c0.32-0.03,0.64,0,0.96,0.01c-0.01,2.52-2.27,2.77-3.8,3.65c-11.73,6.76-23.56,13.4-33.86,22.3c-6.6,5.69-12.12,12.42-14.73,20.8
	c-2.51,8.08-0.58,15.89,3.58,23.15c0.96,1.83,1.88,3.67,2.89,5.47c0.93,1.67,1.99,3.26,2.93,4.93c0.56,0.99,2.54,1.7,1.58,2.88
	c-0.83,1.02-2.36-0.3-3.51-0.68c-11.17-3.6-19.55-10.61-24.74-21.15c-4.4-8.93-4.55-18.12-0.65-27.28
	c3.56-8.38,9.08-15.26,16.12-21.04c7.81-6.42,16.43-11.55,25.32-16.24c10.58-5.58,21.24-11,31.87-16.47
	C345.07,535.87,345.69,535.7,346.29,535.48z"/>
<path class="st8" d="M360.64,501.06c0.91,0.71,0.47,1.64-0.09,2.01c-2.28,1.53-3.61,3.92-5.52,5.79c-3.51,3.43-6.09,7.52-8.09,12
	c-0.58,1.29-1.4,2.47-2.08,3.72c-0.28,0.52,0.26,1.38,0.87,1.35c0.78-0.04,1.6-0.04,2.31-0.29c1.79-0.63,3.53-1.39,5.29-2.09
	c0.97-0.39,1.85-0.37,2.54,0.54c-0.63,0.34-1.27,0.68-1.9,1.02c-0.26,0.3-0.56,0.55-0.92,0.73c-2.39,1.29-4.76,2.62-7.18,3.86
	c-11.79,6.08-23.62,12.06-35.37,18.22c-7.07,3.71-14.12,7.47-20.73,11.99c-9.64,6.6-17.59,14.8-23.54,24.86
	c-2.97,5.02-4.86,10.4-4.54,16.37c0.1,1.89,0.02,3.8,0.02,5.66c-0.87,0.32-1.31-0.18-1.6-0.73c-1.21-2.24-2.48-4.47-3.53-6.79
	c-5.95-13.16-4.36-25.78,2.84-37.97c0.49-0.83,0.9-1.7,1.47-2.47c2.47-3.37,5.2-6.22,9.36-7.8c12.99-4.95,25.63-10.76,37.98-17.13
	c9.37-4.84,18.68-9.79,27.44-15.7c3.84-2.59,7.8-4.99,11.7-7.47c0.21-0.33,0.48-0.59,0.83-0.77c0.26-0.14,0.54-0.23,0.84-0.27
	c0.42-0.22,0.77-0.55,1.11-0.88l0.02-0.01c0.27-0.31,0.57-0.57,0.91-0.79c0.61-0.39,1.23-0.79,1.84-1.18
	c0.38-0.25,0.72-0.57,1.08-0.85l0.06-0.04c0.23-0.32,0.52-0.59,0.86-0.78c0.64-0.39,1.27-0.78,1.91-1.17
	c0.32-0.3,0.66-0.59,1.02-0.85l0.09-0.07c0.2-0.33,0.48-0.59,0.82-0.77C359.4,501.89,360.02,501.48,360.64,501.06z"/>
<path class="st9" d="M279.22,417.45c0.34-0.34,0.73-0.63,1-1.02c1.1-1.56,1.11-3.02-0.36-3.59c-3.37-1.31-3.65-3.82-3.64-6.92
	c0.08-22.69,0.03-45.37,0.06-68.06c0.01-7.4-2.7-13.58-7.84-18.88c-5.91-6.09-13.19-8.59-21.46-8.95c-4.21-0.18-8.27,0.42-12.18,1.9
	c-3.9,1.47-7.46,3.55-10.52,6.42c-3.15,2.96-5.94,6.12-7.77,10.19c-1.74,3.86-2.98,7.68-2.71,11.96c0.16,2.55,0.06,5.11-0.01,7.67
	c-0.04,1.55-0.39,1.86-1.96,2.19c-3.11,0.65-6.29,1.05-9.31,1.98c-9.14,2.81-15.87,8.31-19.66,17.39
	c-2.41,5.78-2.8,11.69-2.61,17.77c0.01,0.32-0.04,0.68,0.09,0.95c1.77,3.57,0.34,6.34-2.01,9.07c-1.76,2.04-3.24,4.33-4.79,6.55
	c-0.52,0.74-1.18,1-2,1.1c-4.82-3.62-4.93-3.26-0.89-8.42c4.08-2.78,4.58-6.56,3.04-10.9c-0.91-10.84,1.74-20.6,8.9-28.93
	c5.83-6.79,13.08-11.12,22.06-12.35c2.14-0.29,2.25-0.46,2.29-2.79c0.06-3.03-0.07-6.05,0.74-9.04
	c4.1-15.14,14.05-24.43,28.96-28.29c11.75-3.05,22.85-1.06,32.72,6.28c5.79,4.3,9.94,9.84,12,16.87c0.69,2.35,0.85,4.7,0.93,7.1
	c0.81,24.92,0.5,49.84,0.45,74.76c-0.01,2.86-0.37,5.73-0.6,8.59c-0.11,1.29-0.63,1.41-1.91,0.44
	C279.86,418.17,279.55,417.79,279.22,417.45z"/>
<path class="st10" d="M292.72,625.74c-0.27,0.12-0.77,0.37-0.77,0.36c-1.96-3.58-4.57-6.9-4.23-11.37c0.15-1.91-0.96-3.63-0.98-5.61
	c-0.03-2.77,0.3-5.44,1.45-7.91c2.28-4.9,4.53-9.83,8.59-13.65c1.49-1.4,2.46-3.34,3.94-4.75c2.06-1.97,4.3-3.77,6.59-5.47
	c7.52-5.6,15.42-10.63,23.59-15.24c3.58-2.02,7.09-4.17,10.64-6.26c1.92-0.97,3.83-1.93,5.75-2.9c0.3-0.34,0.68-0.59,0.98-0.94
	c2.87-1.6,5.75-3.21,8.62-4.81c0.3-0.34,0.68-0.6,0.98-0.94c0.63-0.33,1.27-0.65,1.9-0.98c0.29-0.35,0.67-0.61,0.99-0.94
	c0.63-0.33,1.26-0.65,1.89-0.98c0.29-0.35,0.67-0.61,0.99-0.94c0.63-0.33,1.26-0.66,1.89-0.99c0.3-0.34,0.68-0.6,0.98-0.94
	c7.27-4.92,13.82-10.67,20.17-16.72c7.07-6.74,13.25-14.21,18.82-22.16c5.23-7.46,9.29-15.6,12.56-24.1
	c3.25-8.46,6.38-16.97,8.26-25.88c0.72-3.41,1.49-6.78,1.71-10.31c0.19-3.15,1.22-6.24,0.77-9.46c1.56-3.52,4.04-6.47,6.09-9.69
	c0.12-0.19,0.54-0.24,0.83-0.26c0.38-0.04,0.59,0.2,0.6,0.6c0.02,0.48,0.1,0.95,0.07,1.42c-0.27,3.49-0.41,7.01-0.89,10.48
	c-0.98,7.09-1.96,14.18-3.66,21.16c-5.57,22.83-15.49,43.53-30.49,61.63c-7.75,9.35-16.64,17.63-26.55,24.74
	c-2.07,1.48-3.92,3.28-6.28,4.34c-0.4,0.24-0.73,0.56-1.1,0.83l-0.06,0.04c-0.22,0.33-0.51,0.58-0.87,0.75
	c-0.25,0.16-0.53,0.26-0.82,0.3c-0.43,0.21-0.77,0.54-1.12,0.85l-0.03,0.02c-0.24,0.32-0.54,0.57-0.9,0.75
	c-0.26,0.16-0.54,0.25-0.84,0.28c-0.41,0.22-0.74,0.55-1.11,0.83l-0.06,0.05c-0.21,0.33-0.5,0.57-0.86,0.73
	c-0.27,0.17-0.57,0.27-0.88,0.3c-0.35,0.26-0.7,0.53-1.04,0.8c-0.64,0.36-1.28,0.72-1.92,1.08c-0.28,0.3-0.6,0.55-0.96,0.75
	c-0.26,0.15-0.53,0.24-0.83,0.27c-0.41,0.21-0.75,0.51-1.1,0.81c-0.64,0.35-1.27,0.71-1.91,1.06c-0.29,0.29-0.61,0.54-0.97,0.75
	c-0.26,0.15-0.54,0.24-0.84,0.26c-0.37,0.25-0.73,0.51-1.08,0.79c-0.23,0.14-0.47,0.21-0.74,0.22c-0.49,0.14-0.84,0.48-1.2,0.81
	l-0.03,0.02c-0.24,0.32-0.53,0.55-0.9,0.71c-0.31,0.1-0.63,0.19-0.94,0.29c-0.3,0.29-0.63,0.54-0.99,0.75
	c-0.27,0.15-0.55,0.23-0.85,0.25c-0.36,0.25-0.72,0.5-1.07,0.77c-0.24,0.14-0.51,0.21-0.79,0.23c-0.44,0.17-0.79,0.48-1.14,0.79
	c-0.65,0.35-1.3,0.69-1.94,1.04c-0.25,0.31-0.56,0.54-0.93,0.71c-0.31,0.09-0.62,0.19-0.92,0.28c-0.31,0.28-0.65,0.53-1,0.76
	c-0.26,0.14-0.54,0.22-0.83,0.24c-0.4,0.22-0.75,0.51-1.09,0.8c-0.64,0.35-1.27,0.71-1.91,1.06c-0.29,0.29-0.61,0.55-0.97,0.76
	c-0.26,0.15-0.54,0.24-0.83,0.26c-0.4,0.21-0.74,0.5-1.09,0.79c-0.64,0.36-1.28,0.71-1.91,1.07c-0.28,0.3-0.61,0.54-0.97,0.74
	c-0.26,0.15-0.54,0.24-0.84,0.27c-0.39,0.23-0.74,0.51-1.08,0.81c-0.63,0.36-1.26,0.71-1.89,1.07c-0.31,0.29-0.64,0.55-0.99,0.79
	c-0.22,0.15-0.47,0.24-0.74,0.26c-0.49,0.15-0.84,0.48-1.19,0.83l-0.01,0.01c-0.27,0.31-0.58,0.56-0.93,0.77
	c-0.25,0.15-0.51,0.24-0.8,0.27c-0.45,0.19-0.79,0.52-1.14,0.84l-0.04,0.03c-0.24,0.32-0.54,0.58-0.9,0.77
	c-0.23,0.16-0.49,0.26-0.77,0.3c-0.47,0.17-0.83,0.5-1.15,0.87l0,0c-0.3,0.3-0.63,0.57-0.96,0.83c-0.59,0.38-1.19,0.77-1.78,1.15
	c-0.43,0.22-0.78,0.54-1.1,0.9l0,0c-0.31,0.31-0.64,0.6-1,0.86l-0.07,0.06c-0.22,0.34-0.5,0.61-0.85,0.81
	c-2.6,2.62-5.2,5.25-7.81,7.87c-0.25,0.34-0.54,0.65-0.84,0.95l0,0c-0.35,0.33-0.68,0.67-0.89,1.11c-0.04,0.3-0.14,0.57-0.3,0.82
	c-0.18,0.36-0.43,0.65-0.76,0.88l-0.03,0.05c-0.29,0.37-0.63,0.7-0.83,1.14c-0.02,0.29-0.1,0.56-0.25,0.81
	c-0.23,0.35-0.48,0.69-0.76,1c-0.09,0.31-0.18,0.62-0.26,0.93c-0.18,0.36-0.41,0.68-0.71,0.96c-0.08,0.32-0.17,0.64-0.25,0.96
	c-0.19,0.37-0.42,0.71-0.68,1.03c0,0.31-0.06,0.6-0.19,0.88c-0.25,0.37-0.56,0.71-0.73,1.13c-0.09,0.58-0.18,1.17-0.27,1.75
	c-0.24,0.37-0.47,0.75-0.68,1.14c-0.09,1.23-0.18,2.46-0.27,3.68c-0.51,2.54-0.52,5.08,0.01,7.62c0.07,0.94,0.14,1.89,0.21,2.83
	c0.5,0.57,0.33,1.4,0.76,1.99C292.51,624.57,292.61,625.16,292.72,625.74z"/>
<path class="st11" d="M444.28,323.77c-0.12,1.77-0.17,2.57-0.24,3.36c-0.03,0.34-0.31,0.49-0.7,0.4c-0.14-0.03-0.32-0.13-0.38-0.25
	c-0.28-0.56-0.55-1.13-0.77-1.72c-2.85-7.79-7.49-14.43-13.2-20.34c-1.43-1.48-3.15-2.7-4.77-3.99c-0.32-0.25-0.96-0.5-1.22-0.35
	c-0.6,0.35-0.09,0.81,0.19,1.11c1.65,1.74,3.21,3.53,4.68,5.44c4.58,5.92,7.18,12.75,9.45,19.75c0.14,0.44,0.18,0.96,0.13,1.42
	c-0.08,0.66-0.43,1.36-1.16,1.28c-6.83-0.72-13.61-1.53-19.56-5.49c-5.41-3.6-9.01-8.53-11.32-14.48c-0.86-2.22-1.27-4.58-1.57-6.98
	c-0.51-4.1-1.11-8.2-1.92-12.25c-0.46-2.33-1.28-4.62-2.17-6.83c-0.9-2.22,0.15-2.82,2.32-2.36c1.25,0.26,2.51,0.47,3.74,0.79
	c7.29,1.89,14.4,4.28,20.91,8.14c5.19,3.08,9.18,7.38,12.04,12.71c2.44,4.55,4.02,9.38,4.53,14.51
	C443.53,320.02,444.52,322.31,444.28,323.77z"/>
<path class="st12" d="M465.39,292.84c-2.15,0.96-3.37,2.9-4.73,4.64c-3.85,4.93-7.21,10.17-9.56,16c-0.18,0.44-0.39,0.88-0.68,1.25
	c-0.17,0.21-0.55,0.39-0.8,0.36c-0.21-0.03-0.51-0.35-0.56-0.59c-0.65-2.97-1.08-5.96-0.75-9.03c0.97-8.93,4.77-16.5,10.92-22.95
	c1.66-1.74,3.53-3.26,5.66-4.4c5.64-3.03,11.46-5.66,17.42-7.99c0.59-0.23,1.24-0.39,1.78,0.09c0.57,0.51,0.35,1.19,0.19,1.79
	c-1.45,5.62-1.73,11.33-1.64,17.1c0.05,3.33,0.17,6.64-0.59,10c-1.37,6.03-4.37,10.98-8.89,15c-4.86,4.33-10.55,7.16-16.92,8.58
	c-2.39,0.53-2.88,0.14-2.43-2.43c0.55-3.13,1.12-6.31,2.15-9.31c1.94-5.61,4.63-10.88,8.25-15.63c0.58-0.77,1.25-1.48,1.12-2.55
	L465.39,292.84z"/>
<path class="st13" d="M243.75,534.83c-2.39,0.22-4.11-1.1-5.15-2.91c-2.41-4.19-6.41-6.66-10.04-9.43
	c-8.47-6.46-17.32-12.42-25.8-18.88c-6.21-4.73-11.9-10.03-16.8-16.23c-3.16-4-6.36-7.93-9.2-12.17
	c-4.1-6.13-7.25-12.76-10.48-19.35c-0.2-0.42-0.31-0.91-0.34-1.37c-0.01-0.22,0.25-0.48,0.45-0.66c0.06-0.06,0.35-0.01,0.43,0.09
	c0.65,0.68,1.27,1.39,1.9,2.08c0.3,0.37,0.66,0.67,0.99,1.01l-0.09-0.1c0.74,0.94,1.24,2.03,1.98,2.97c0,0-0.04-0.06-0.04-0.06
	c0.69,3.39,2.94,5.96,4.76,8.71c9.54,14.4,21.8,26.11,35.86,36.03c7.16,5.05,14.35,10.05,21.79,14.69c4.51,2.81,8.33,6.4,11.9,10.28
	c0.93,1.01,2.16,1.92,2.24,3.64C246.8,534.08,245.29,534.49,243.75,534.83z"/>
<path class="st14" d="M309.77,404.18c1.31,0.9,2.61,1.81,3.92,2.71c-1.73,0.24-2.76,1.53-3.89,2.63
	c-3.99,3.92-7.86,7.96-11.94,11.77c-1.94,1.81-2.54,3.79-2.53,6.35c0.09,17.09,0.07,34.18,0.08,51.27c0,0.8-0.08,1.61,0.03,2.39
	c0.67,5.03-1.54,9.33-3.4,13.73c-0.08,0.2-0.53,0.37-0.78,0.34c-0.2-0.03-0.51-0.37-0.52-0.58c-0.07-1.27-0.08-2.55-0.09-3.83
	c-0.03-15.33-0.06-30.67-0.1-46c-0.01-2.39-0.23-4.74-0.52-7.13c-0.46-3.78-0.2-7.65-0.27-11.48c-0.03-1.62,0.99-2.63,2.01-3.66
	c3.71-3.74,7.46-7.45,11.11-11.25C305.19,409.05,307.86,406.98,309.77,404.18z"/>
<path class="st15" d="M302.41,473.02c-0.49-3.52-1.25-6.55-1.15-9.74c0.11-3.67,0.02-7.35-0.03-11.02
	c-0.03-1.69,0.38-2.95,1.91-4.05c2.98-2.15,5.44-4.89,7.79-7.73c1.62-1.96,3.45-3.76,5.23-5.59c0.99-1.01,1.46-1.99,0.77-3.4
	c-0.66-1.33-0.48-2.83-0.35-4.25c0.32-3.43,3.02-6.06,6.59-6.56c2.51-0.35,6.41,1.86,7.5,4.25c2.38,5.2-1.01,10.79-6.68,10.99
	c-0.8,0.03-1.6-0.02-2.39-0.06c-1.03-0.05-1.86,0.36-2.57,1.06c-1.02,1.01-2.17,1.93-3.03,3.06c-2.42,3.2-5.26,6-8.13,8.76
	c-1.52,1.46-2.02,3.09-1.97,5.13c0.1,4.15,0.02,8.3,0.04,12.46C305.94,469.02,305.1,471.22,302.41,473.02z"/>
<path class="st16" d="M338.55,432.72c-0.33-1.48,0.76-2.93,2.2-4.35c5.45-5.38,10.78-10.88,16.26-16.24
	c1.81-1.77,2.77-3.57,2.71-6.24c-0.1-5.03,3.37-7.99,8.25-7.54c3.04,0.28,5.94,3.25,6.2,6.3c0.26,3.06-0.51,5.73-3.11,7.57
	c-2.07,1.46-4.42,2.12-6.75,0.84c-1.97-1.08-3.15-0.44-4.52,1.02c-3.28,3.49-6.64,6.9-10.08,10.23c-1.58,1.54-2.57,3.16-2.36,5.44
	c0.1,1.09,0.12,2.25-0.6,3.23c-0.47,0.64-1.01,1.43-1.84,1.24c-0.64-0.14-0.58-1.04-0.69-1.66c-0.03-0.16-0.04-0.35-0.13-0.45
	c-0.19-0.2-0.45-0.5-0.67-0.49c-0.24,0-0.62,0.27-0.67,0.49c-0.16,0.61-0.23,1.25-0.26,1.88c-0.07,1.36-1.04,1.87-2.1,2.31
	c-0.87,0.36-1.57-0.06-1.67-1.01C338.65,434.66,338.63,434.03,338.55,432.72z"/>
<path class="st17" d="M252.94,355.3c-3.45,0.07-6.19-2.38-6.33-5.67c-0.14-3.23,2.58-6,5.94-6.06c3.66-0.07,6.15,2.16,6.29,5.64
	C258.98,352.47,256.31,355.23,252.94,355.3z"/>
<path class="st18" d="M221.4,363.32c0.02-3.4,2.67-6.11,5.95-6.08c3.27,0.03,5.86,2.76,5.84,6.17c-0.02,3.38-2.68,6.1-5.94,6.08
	C223.96,369.47,221.38,366.74,221.4,363.32z"/>
<path class="st19" d="M201.93,386c-3.27-0.13-5.5-2.58-5.43-5.97c0.07-3.5,2.64-5.84,6.23-5.69c3.29,0.14,5.49,2.56,5.43,5.97
	C208.09,383.81,205.53,386.15,201.93,386z"/>
<path class="st7" d="M291.43,619.17c-1.13-2.89-1.13-4.7-0.01-7.62C291.42,614.09,291.43,616.63,291.43,619.17z"/>
<path class="st7" d="M292.41,623.99c-0.69-0.49-0.83-1.2-0.76-1.99C292.29,622.51,292.55,623.17,292.41,623.99z"/>
<path class="st4" d="M357.87,503.14c-0.34,0.28-0.68,0.57-1.02,0.85C357.19,503.71,357.53,503.42,357.87,503.14z"/>
<path class="st4" d="M354.94,505.16c-0.29,0.26-0.57,0.52-0.86,0.78C354.37,505.68,354.65,505.42,354.94,505.16z"/>
<path class="st4" d="M354.02,505.99c-0.36,0.28-0.72,0.57-1.08,0.85C353.3,506.56,353.66,506.27,354.02,505.99z"/>
<path class="st4" d="M351.1,508.02c-0.3,0.26-0.61,0.53-0.91,0.79C350.49,508.55,350.8,508.28,351.1,508.02z"/>
<path class="st4" d="M350.17,508.83c-0.37,0.29-0.74,0.59-1.11,0.88C349.43,509.41,349.8,509.12,350.17,508.83z"/>
<path class="st4" d="M348.22,509.98c-0.28,0.26-0.56,0.51-0.84,0.77C347.66,510.49,347.94,510.23,348.22,509.98z"/>
<path class="st4" d="M353.06,525.85c0.31-0.24,0.61-0.49,0.92-0.73C353.67,525.36,353.37,525.6,353.06,525.85z"/>
<path class="st7" d="M367.41,547.12c0.37-0.28,0.73-0.56,1.1-0.83C368.15,546.57,367.78,546.85,367.41,547.12z"/>
<path class="st7" d="M366.49,547.92c0.29-0.25,0.58-0.5,0.87-0.75C367.22,547.6,366.96,547.88,366.49,547.92z"/>
<path class="st7" d="M364.54,549.07c0.37-0.28,0.75-0.57,1.12-0.85C365.29,548.51,364.92,548.79,364.54,549.07z"/>
<path class="st7" d="M363.61,549.85c0.3-0.25,0.6-0.5,0.9-0.75C364.36,549.53,364.09,549.82,363.61,549.85z"/>
<path class="st7" d="M361.66,550.96c0.37-0.28,0.74-0.55,1.11-0.83C362.4,550.41,362.03,550.69,361.66,550.96z"/>
<path class="st7" d="M360.73,551.74c0.29-0.24,0.57-0.49,0.86-0.73C361.3,551.25,361.02,551.49,360.73,551.74z"/>
<path class="st7" d="M358.81,552.84c0.35-0.27,0.7-0.53,1.04-0.8C359.5,552.31,359.15,552.57,358.81,552.84z"/>
<path class="st7" d="M355.93,554.67c0.32-0.25,0.64-0.5,0.96-0.75C356.57,554.17,356.25,554.42,355.93,554.67z"/>
<path class="st7" d="M354,555.75c0.36-0.27,0.73-0.54,1.1-0.81C354.73,555.21,354.37,555.48,354,555.75z"/>
<path class="st7" d="M351.13,557.55c0.32-0.25,0.64-0.5,0.97-0.75C351.77,557.06,351.45,557.31,351.13,557.55z"/>
<path class="st7" d="M349.2,558.61c0.36-0.26,0.72-0.53,1.08-0.79C349.93,558.08,349.56,558.34,349.2,558.61z"/>
<path class="st7" d="M347.26,559.64c0.26-0.48,0.65-0.76,1.2-0.81C348.07,559.1,347.67,559.37,347.26,559.64z"/>
<path class="st7" d="M346.33,560.37c0.3-0.24,0.6-0.47,0.9-0.71C346.93,559.9,346.63,560.13,346.33,560.37z"/>
<path class="st7" d="M344.41,561.41c0.33-0.25,0.66-0.5,0.99-0.75C345.07,560.91,344.74,561.16,344.41,561.41z"/>
<path class="st7" d="M342.49,562.42c0.36-0.26,0.71-0.51,1.07-0.77C343.2,561.91,342.84,562.16,342.49,562.42z"/>
<path class="st7" d="M340.56,563.44c0.38-0.26,0.76-0.53,1.14-0.79C341.32,562.91,340.94,563.17,340.56,563.44z"/>
<path class="st7" d="M337.69,565.18c0.31-0.24,0.62-0.47,0.93-0.71C338.31,564.71,338,564.95,337.69,565.18z"/>
<path class="st7" d="M335.77,566.22c0.33-0.25,0.67-0.51,1-0.76C336.44,565.72,336.1,565.97,335.77,566.22z"/>
<path class="st7" d="M333.84,567.27c0.36-0.27,0.73-0.54,1.09-0.8C334.57,566.73,334.21,567,333.84,567.27z"/>
<path class="st7" d="M330.97,569.09c0.32-0.25,0.65-0.5,0.97-0.76C331.61,568.58,331.29,568.83,330.97,569.09z"/>
<path class="st7" d="M329.05,570.14c0.36-0.26,0.73-0.53,1.09-0.79C329.77,569.61,329.41,569.87,329.05,570.14z"/>
<path class="st7" d="M326.17,571.95c0.32-0.25,0.64-0.49,0.97-0.74C326.81,571.45,326.49,571.7,326.17,571.95z"/>
<path class="st7" d="M321.37,574.88c0.33-0.26,0.66-0.52,0.99-0.79C322.03,574.36,321.7,574.62,321.37,574.88z"/>
<path class="st7" d="M319.43,575.98c0.25-0.49,0.63-0.78,1.19-0.83C320.23,575.43,319.83,575.7,319.43,575.98z"/>
<path class="st7" d="M318.49,576.76c0.31-0.26,0.62-0.51,0.93-0.77C319.11,576.25,318.8,576.51,318.49,576.76z"/>
<path class="st7" d="M316.54,577.87c0.38-0.28,0.76-0.56,1.14-0.84C317.31,577.32,316.93,577.59,316.54,577.87z"/>
<path class="st7" d="M315.61,578.67c0.3-0.26,0.6-0.51,0.9-0.77C316.21,578.16,315.91,578.41,315.61,578.67z"/>
<path class="st7" d="M313.69,579.85c0.23-0.5,0.6-0.8,1.15-0.87C314.45,579.27,314.07,579.56,313.69,579.85z"/>
<path class="st7" d="M312.73,580.68c0.32-0.28,0.64-0.55,0.96-0.83C313.37,580.12,313.05,580.4,312.73,580.68z"/>
<path class="st7" d="M309.84,582.72c0.37-0.3,0.73-0.6,1.1-0.9C310.58,582.12,310.21,582.42,309.84,582.72z"/>
<path class="st7" d="M308.85,583.58c0.33-0.29,0.66-0.57,1-0.86C309.51,583.01,309.18,583.3,308.85,583.58z"/>
<path class="st7" d="M307.93,584.45c0.28-0.27,0.57-0.54,0.85-0.81C308.49,583.91,308.21,584.18,307.93,584.45z"/>
<path class="st7" d="M324.24,573.03c0.36-0.27,0.72-0.54,1.08-0.81C324.97,572.49,324.61,572.76,324.24,573.03z"/>
<path class="st7" d="M298.39,594.39c0.3-0.37,0.59-0.74,0.89-1.11C298.98,593.65,298.68,594.02,298.39,594.39z"/>
<path class="st7" d="M297.33,596.09c0.25-0.29,0.51-0.59,0.76-0.88C297.84,595.5,297.59,595.8,297.33,596.09z"/>
<path class="st7" d="M296.47,597.28c0.28-0.38,0.55-0.76,0.83-1.14C297.02,596.52,296.75,596.9,296.47,597.28z"/>
<path class="st7" d="M295.46,599.09c0.26-0.33,0.51-0.67,0.77-1C295.97,598.42,295.71,598.75,295.46,599.09z"/>
<path class="st7" d="M294.49,600.97c0.24-0.32,0.48-0.64,0.71-0.96C294.96,600.33,294.72,600.65,294.49,600.97z"/>
<path class="st7" d="M293.55,602.96c0.23-0.34,0.46-0.69,0.68-1.03C294.01,602.28,293.78,602.62,293.55,602.96z"/>
<path class="st7" d="M292.64,604.98c0.02-0.52,0.27-0.89,0.73-1.13C293.13,604.22,292.88,604.6,292.64,604.98z"/>
<path class="st7" d="M291.69,607.87c0.23-0.38,0.45-0.76,0.68-1.14C292.38,607.25,292.12,607.61,291.69,607.87z"/>
<path class="st4" d="M358.78,502.3c-0.28,0.26-0.55,0.51-0.82,0.77C358.23,502.82,358.5,502.56,358.78,502.3z"/>
<path class="st7" d="M299.28,593.27c0.28-0.32,0.56-0.63,0.84-0.95C300.05,592.83,299.74,593.12,299.28,593.27z"/>
<path class="st20" d="M171.61,459.89c-1.36-0.52-1.75-1.69-1.98-2.97C170.72,457.62,171.56,458.49,171.61,459.89z"/>
<path class="st20" d="M169.72,457.01c-0.33-0.34-0.66-0.67-0.99-1.01C169.06,456.34,169.39,456.68,169.72,457.01z"/>
<path class="st7" d="M366.5,540.5c-0.33,0.31-0.66,0.63-0.98,0.94C365.85,541.13,366.18,540.81,366.5,540.5z"/>
<path class="st7" d="M363.63,542.43c-0.33,0.31-0.66,0.63-0.99,0.94C362.97,543.05,363.3,542.74,363.63,542.43z"/>
<path class="st7" d="M360.75,544.34c-0.33,0.31-0.66,0.62-0.99,0.94C360.09,544.97,360.42,544.66,360.75,544.34z"/>
<path class="st7" d="M357.86,546.26c-0.33,0.31-0.65,0.63-0.98,0.94C357.21,546.88,357.54,546.57,357.86,546.26z"/>
<path class="st7" d="M348.26,552.01c-0.33,0.31-0.65,0.63-0.98,0.94C347.6,552.64,347.93,552.32,348.26,552.01z"/>
<path class="st21" d="M331.02,349.1c0-4,0.04-7.99-0.02-11.99c-0.03-1.71,0.25-3.13,1.92-4.03c0.69-0.37,1.29-0.95,1.82-1.54
	c2.64-2.92,2.55-7.6-0.17-10.48c-2.61-2.76-6.93-3.11-10.06-0.81c-3.82,2.8-3.94,9.78,0.32,12.39c2.85,1.74,3.34,3.69,3.28,6.59
	c-0.13,7.19-0.04,14.39-0.05,21.58c0,1.12-0.03,2.24-0.11,3.35c-0.08,0.95-0.75,1.33-1.62,1.43c-2.86,0.31-3.83-0.49-3.96-3.3
	c-0.04-0.96-0.02-1.92-0.02-2.88c0-1.6-0.12-3.21,0.02-4.79c0.18-2.12-0.61-3.7-2.16-5.05c-0.84-0.73-1.55-1.62-2.39-2.36
	c-1.42-1.24-2.02-2.44-1.42-4.55c0.79-2.73,0.06-5.44-2.36-7.31c-2.52-1.95-5.52-1.99-8.2-0.88c-2.69,1.12-3.82,3.66-3.81,6.66
	c0.01,4.91,2.87,7.69,7.82,7.48c0.32-0.01,0.64-0.01,0.96-0.04c1.47-0.13,2.92-1.42,4.41,0.22c1.81,2,4.13,3.63,4.05,6.75
	c-0.05,1.76,0.04,3.52-0.11,5.27c-0.1,1.09-0.24,2.23-0.47,3.27c-0.24,1.1-1.85,0.97-2.81,1.51c-1.42,0.8-2.59,1.85-3.75,2.95
	c-0.77,0.73-1.55,1.02-2.51,0.22c-3.68-3.06-7.36-6.12-11.1-9.11c-2.13-1.71-3.24-3.68-3.08-6.57c0.23-4.14,0.02-8.31,0.07-12.47
	c0.08-6.84,1.55-13.28,5.63-18.93c2.47-3.43,5.66-6,9.29-8.14c4.81-2.84,10.12-4.02,15.55-4.19c5.47-0.17,10.71,1.42,15.67,3.76
	c1.29,0.61,1.85,1.63,1.85,3.06c-0.02,5.28-0.03,10.55,0.03,15.83c0.02,1.54-0.32,2.95-1.57,3.82c-4.22,2.94-4.76,7.1-4.46,11.79
	c0.27,4.3,0.02,8.63,0.09,12.95c0.03,2-0.95,3.32-2.45,4.39c-1.9,1.35-3.92,0.42-4.03-1.95c-0.12-2.39-0.05-4.79-0.06-7.19
	c-0.01-2.24,0-4.48,0-6.71C331.05,349.1,331.03,349.1,331.02,349.1z"/>
<path class="st21" d="M311.82,386.25c0-3.35-0.12-6.71,0.03-10.06c0.17-3.83,2.93-6.44,6.82-6.5c5.75-0.08,11.5,0.01,17.24,0
	c1.31,0,2.5,0.36,3.73,0.73c2.2,0.66,3.59,2,3.92,4.32c0.25,1.73,0.64,3.46,0.67,5.2c0.1,4.95,0.12,9.9,0.04,14.85
	c-0.11,6.89-2.38,9.11-9.3,9.21c-4.63,0.07-9.26,0.05-13.89,0c-1.26-0.01-2.55-0.14-3.78-0.45c-3.65-0.91-5.41-3-5.54-6.77
	c-0.12-3.51-0.03-7.02-0.03-10.54C311.77,386.25,311.79,386.25,311.82,386.25z"/>
<path class="st22" d="M371.21,375.22c0-2.81,1.64-4.62,4.25-4.7c2.51-0.08,5.28,2.38,5.15,4.57c-0.14,2.42-2.74,4.9-5.07,4.84
	C373.06,379.87,371.21,377.86,371.21,375.22z"/>
<path class="st23" d="M333.77,326.29c0.05,2.69-2.07,4.85-4.75,4.83c-2.24-0.02-4.58-2.3-4.66-4.54c-0.08-2.4,2.41-4.94,4.82-4.91
	C331.37,321.7,333.72,324.07,333.77,326.29z"/>
<path class="st22" d="M350.82,346.44c2.7-0.06,4.65,1.59,4.87,4.14c0.21,2.41-1.77,4.59-4.27,4.7c-3.03,0.13-5.03-1.59-5.06-4.36
	C346.33,348.28,348.1,346.51,350.82,346.44z"/>
<path class="st24" d="M313.75,341.38c-0.05,2.64-1.89,4.34-4.6,4.26c-2.67-0.07-4.2-1.77-4.18-4.66c0.02-3.01,1.35-4.26,4.43-4.14
	C312.13,336.96,313.8,338.7,313.75,341.38z"/>
<path class="st20" d="M465.39,292.84c0.14-0.16,0.29-0.32,0.43-0.48c-0.03,0.1-0.02,0.25-0.09,0.3c-0.11,0.07-0.27,0.08-0.41,0.11
	C465.32,292.77,465.39,292.84,465.39,292.84z"/>
<path class="st25" d="M323.93,432.95c-2.8,0.02-4.52-1.66-4.5-4.38c0.02-2.48,2.55-4.99,4.9-4.85c2.04,0.12,4.48,2.77,4.49,4.87
	C328.83,430.54,326.14,432.93,323.93,432.95z"/>
<path class="st23" d="M371.3,405.58c0.07,2.29-2.13,4.91-4.22,5.03c-2.37,0.13-4.98-2.28-5.14-4.77c-0.14-2.03,2.36-4.47,4.69-4.57
	C369.29,401.14,371.21,402.92,371.3,405.58z"/>
<path class="st5" d="M328.38,392.59c-2.78-0.08-5.96-3.19-5.95-5.83c0.01-3.36,2.64-5.8,6.22-5.77c3.23,0.03,6.1,2.64,5.95,5.54
	C334.45,389.48,331.29,393.01,328.38,392.59z"/>
</svg>
